<?xml version="1.0" encoding="UTF-8"?>
<svg version="1.1" xmlns="http://www.w3.org/2000/svg" width="792" height="446">
<path d="M0 0 C261.36 0 522.72 0 792 0 C792 147.18 792 294.36 792 446 C530.64 446 269.28 446 0 446 C0 298.82 0 151.64 0 0 Z " fill="#FEFEFE" transform="translate(0,0)"/>
<path d="M0 0 C5.02096662 2.23154072 6.88934444 5.05200514 9.16837895 9.80150366 C10.46775474 13.23656933 10.54952054 16.58926146 10.50120544 20.20831299 C10.50950704 21.38805431 10.50950704 21.38805431 10.51797634 22.59162879 C10.53150345 25.20627184 10.51665725 27.81994703 10.50170898 30.43457031 C10.50549518 32.31773787 10.5109977 34.20090263 10.51808167 36.08406067 C10.53201812 41.18558857 10.52087738 46.28677848 10.50437045 51.38828754 C10.49048822 56.73849546 10.49698396 62.08868437 10.50050354 67.43890381 C10.50320409 76.42693504 10.48974659 85.41483262 10.46655273 94.40283203 C10.43997642 104.77291506 10.43818624 115.14277422 10.4499411 125.51287961 C10.46074891 135.50923333 10.45450618 145.50550659 10.44038582 155.50185394 C10.43464878 159.74557156 10.43469076 163.98922987 10.43945122 168.2329483 C10.44424986 173.23992054 10.43400048 178.24665012 10.41249657 183.25357628 C10.40696647 185.08362446 10.40642834 186.91369615 10.41144943 188.7437458 C10.44959811 204.65189534 8.93471654 218.08912453 -1.875 230.625 C-12.9837955 241.10970586 -26.96944901 243.43399382 -41.578125 243.20703125 C-52.20636827 242.8427748 -60.14500334 238.56601614 -67.8203125 231.26953125 C-75.11826023 223.25645798 -77.41650269 215.0431857 -77.26171875 204.375 C-76.37380357 192.9248699 -69.25471973 185.94756831 -61.25 178.3359375 C-51.77488983 170.61372271 -39.62147311 171 -28 171 C-28.33 141.3 -28.66 111.6 -29 81 C-35.93 89.415 -35.93 89.415 -43 98 C-49.17604818 104.69071886 -54.83489779 109.93803318 -63 114 C-63.74507812 114.37125 -64.49015625 114.7425 -65.2578125 115.125 C-73.69590259 117.81749598 -84.533559 117.30227269 -92.5 113.5625 C-103.4619119 107.10010566 -112.38175698 97.17999289 -120.1640625 87.234375 C-121.80549703 84.92760686 -121.80549703 84.92760686 -124 84 C-123.99631283 84.59100337 -123.99262566 85.18200674 -123.98882675 85.7909193 C-123.90018269 100.2242699 -123.83414869 114.65759607 -123.79275131 129.09115887 C-123.77219561 136.07137058 -123.7442104 143.05139969 -123.69824219 150.03149414 C-123.65385497 156.77478055 -123.63082418 163.51787765 -123.62049103 170.26130104 C-123.61313241 172.82675971 -123.59876319 175.3922087 -123.57707977 177.95758629 C-123.31735105 209.97599371 -123.31735105 209.97599371 -135 224 C-135.56203125 224.69738281 -136.1240625 225.39476562 -136.703125 226.11328125 C-140.7223865 230.61310662 -145.24561486 233.53125207 -150.5 236.375 C-151.11681641 236.70902832 -151.73363281 237.04305664 -152.36914062 237.38720703 C-160.34446971 241.47803713 -167.71942115 242.32574372 -176.5625 242.25 C-177.46935547 242.25773438 -178.37621094 242.26546875 -179.31054688 242.2734375 C-184.5968935 242.25810364 -188.99915937 241.72868565 -194 240 C-194 239.34 -194 238.68 -194 238 C-195.31677734 237.84724609 -195.31677734 237.84724609 -196.66015625 237.69140625 C-205.43279731 235.87531564 -213.01501266 229.25679147 -218 222 C-224.02855254 211.59132725 -225.95124159 201.17382304 -222.8828125 189.2890625 C-219.8221401 181.35298273 -214.84042 174.96265764 -208 170 C-207.34 170 -206.68 170 -206 170 C-206 169.34 -206 168.68 -206 168 C-194.73704327 161.72150071 -182.9236079 159.2488256 -170 161 C-168.40379655 161.46744934 -166.81926049 161.9764183 -165.24829102 162.52270508 C-164.449319 162.79786453 -163.65034698 163.07302399 -162.8271637 163.35652161 C-162.22419968 163.56886948 -161.62123566 163.78121735 -161 164 C-161.00460896 163.34769661 -161.00921793 162.69539322 -161.01396656 162.02332306 C-161.12451977 146.1313053 -161.20719225 130.23942181 -161.25906086 114.34711456 C-161.28481266 106.66160753 -161.31990478 98.9763576 -161.37719727 91.29101562 C-161.42712553 84.59031735 -161.45931301 77.88980535 -161.47044247 71.18892622 C-161.47694548 67.64268903 -161.49216471 64.09698456 -161.52865028 60.55091858 C-161.56910639 56.58658062 -161.56994337 52.6227578 -161.56762695 48.65820312 C-161.58560333 47.4900708 -161.60357971 46.32193848 -161.62210083 45.1184082 C-161.57813462 38.15879836 -160.67793349 33.32521877 -156 28 C-150.59737371 23.67789897 -143.57538319 24.31778585 -137 25 C-131.86424862 26.21549766 -126.73583033 27.63208483 -122 30 C-122 30.66 -122 31.32 -122 32 C-120.94425781 32.33451172 -120.94425781 32.33451172 -119.8671875 32.67578125 C-116.37272661 34.28970801 -113.87418778 36.56042977 -111.125 39.1875 C-110.34044434 39.92407837 -110.34044434 39.92407837 -109.54003906 40.67553711 C-108.01907663 42.10925819 -106.50858903 43.55328065 -105 45 C-104.22914063 45.72960937 -103.45828125 46.45921875 -102.6640625 47.2109375 C-99.1534794 50.60688931 -99.1534794 50.60688931 -98 52 C-98 52.66 -98 53.32 -98 54 C-96.515 54.495 -96.515 54.495 -95 55 C-93.31640625 56.7421875 -93.31640625 56.7421875 -91.5625 58.875 C-87.39110436 63.99674647 -87.39110436 63.99674647 -81.484375 66.5390625 C-76.25098544 66.70354046 -72.8206313 66.48229787 -68.75 63 C-67.46550152 61.69986868 -66.21470397 60.36556656 -65 59 C-64.42894531 58.37480469 -63.85789063 57.74960938 -63.26953125 57.10546875 C-62.11036971 55.80306986 -60.9675532 54.48597543 -59.83984375 53.15625 C-57.8173227 50.78590685 -55.72586152 48.48861695 -53.625 46.1875 C-50.49577173 42.72469918 -47.49499651 39.19320997 -44.5625 35.5625 C-40.6576941 30.73771366 -36.55417733 26.14006974 -32.35546875 21.5703125 C-28.1609096 16.99316504 -24.07136857 12.3435454 -20.1875 7.5 C-19.465625 6.675 -18.74375 5.85 -18 5 C-17.34 5 -16.68 5 -16 5 C-16 4.34 -16 3.68 -16 3 C-10.73765373 -0.32358712 -6.05563452 -0.85804593 0 0 Z " fill="#FB6452" transform="translate(246,92)"/>
<path d="M0 0 C8.58 0 17.16 0 26 0 C26 39.93 26 79.86 26 121 C17.42 121 8.84 121 0 121 C0 118.36 0 115.72 0 113 C-0.56847656 113.42152344 -1.13695312 113.84304688 -1.72265625 114.27734375 C-6.57376495 117.71928231 -10.02230894 119.74563017 -16 120 C-16 120.66 -16 121.32 -16 122 C-20.40580067 123.46860022 -24.69760513 123.18436701 -29.3125 123.1875 C-30.25029297 123.19974609 -31.18808594 123.21199219 -32.15429688 123.22460938 C-37.17608029 123.23522625 -41.29600185 122.99348665 -46 121 C-46 120.34 -46 119.68 -46 119 C-47.3303125 118.87818359 -47.3303125 118.87818359 -48.6875 118.75390625 C-56.17551439 117.04967656 -62.34960279 109.37090885 -66.6875 103.24609375 C-73.95746415 90.80493487 -76.69930454 76.09204492 -73.12890625 61.953125 C-69.00084531 49.55540755 -60.57959583 38.71065452 -48.8125 32.625 C-47.56043906 32.04125045 -46.28672762 31.50274464 -45 31 C-44.10152344 30.64421875 -43.20304688 30.2884375 -42.27734375 29.921875 C-33.566473 27.47161815 -22.50761021 27.71252449 -14.2890625 31.65234375 C-2.78839178 38.42321644 -2.78839178 38.42321644 -1 42 C-0.67 28.14 -0.34 14.28 0 0 Z " fill="#194F51" transform="translate(592,155)"/>
<path d="M0 0 C3.7782073 2.53168878 7.4200152 5.19590544 11 8 C11.33 5.36 11.66 2.72 12 0 C19.92 0 27.84 0 36 0 C36 28.71 36 57.42 36 87 C28.08 87 20.16 87 12 87 C12 84.36 12 81.72 12 79 C11.48050781 79.40992188 10.96101562 79.81984375 10.42578125 80.2421875 C1.67942584 87 1.67942584 87 -4 87 C-4 87.66 -4 88.32 -4 89 C-10.7839231 92.39196155 -22.6965381 90.71480369 -29.86328125 89.1640625 C-42.759194 84.56168885 -51.4392375 76.02892068 -57.5390625 63.953125 C-62.56230288 51.99837416 -63.26628936 38.02564981 -58.875 25.75 C-54.20918239 15.51656811 -46.04855693 5.34497709 -36 0 C-32.125 -0.75 -32.125 -0.75 -29 -1 C-29 -1.66 -29 -2.32 -29 -3 C-19.63115058 -5.89539819 -8.42098329 -4.92803524 0 0 Z " fill="#164D4E" transform="translate(734,188)"/>
<path d="M0 0 C0.86496094 0.43441406 1.72992188 0.86882812 2.62109375 1.31640625 C12.82306816 6.76677614 21.15774222 16.21891938 24.7421875 27.29296875 C28.05975515 41.22220827 26.21886092 54.84090464 19.25 67.3125 C13.71101758 75.84253293 7.35071172 81.09753495 -2 85 C-2.71027344 85.33531738 -3.42054688 85.67063477 -4.15234375 86.01611328 C-10.6685141 88.92696196 -16.16119132 89.56001012 -23.25 89.375 C-24.20390625 89.37371094 -25.1578125 89.37242187 -26.140625 89.37109375 C-31.13750676 89.30863273 -35.32320986 88.96174083 -40 87 C-40 86.34 -40 85.68 -40 85 C-41.36125 84.814375 -41.36125 84.814375 -42.75 84.625 C-45.58970323 84.07890323 -47.52590591 83.42736197 -50 82 C-50 81.34 -50 80.68 -50 80 C-51.0209375 79.7215625 -51.0209375 79.7215625 -52.0625 79.4375 C-61.26130335 74.93595793 -66.15008318 65.54737714 -69.8125 56.4375 C-74.11663288 43.63441266 -72.78991095 32.10060755 -67 20 C-60.61310658 8.96138073 -50.03896285 -0.41402541 -37.875 -4.23046875 C-25.06872963 -6.77364946 -11.4585578 -6.67677943 0 0 Z " fill="#184D4F" transform="translate(480,189)"/>
<path d="M0 0 C0 0.66 0 1.32 0 2 C0.87785156 2.10183594 1.75570312 2.20367187 2.66015625 2.30859375 C12.60507199 4.36736578 19.78126106 12.0522697 25.4296875 20.015625 C31.81103311 30.2106742 32 41.24950182 32 53 C10.88 53 -10.24 53 -32 53 C-28.70171514 63.35078748 -28.70171514 63.35078748 -20.875 69.875 C-15.08640148 71.95939773 -8.97323679 72.0363149 -3.17578125 70.015625 C1.80282555 67.72468502 1.80282555 67.72468502 5.5 63.828125 C7 62 7 62 9.09375 61.6875 C15.79093543 62.55726434 21.75411396 64.44702377 28 67 C26.06078273 75.40327485 19.96923155 81.94505173 13.05078125 86.78125 C8.50590688 89.48220391 4.35502112 91 -1 91 C-1 91.66 -1 92.32 -1 93 C-13.79615774 93.52229215 -25.39118913 93.22501452 -37 87 C-37 86.34 -37 85.68 -37 85 C-37.7425 84.75121094 -38.485 84.50242187 -39.25 84.24609375 C-46.72224584 80.86023235 -50.84885567 73.09196443 -53.9921875 65.87109375 C-58.3491292 53.4588761 -59.18848276 38.94870848 -54.2578125 26.5703125 C-49.41572722 16.67561649 -42.22204137 7.60711724 -32 3 C-31.24589844 2.62875 -30.49179687 2.2575 -29.71484375 1.875 C-21.03436105 -1.89570742 -9.15294686 -2.93945813 0 0 Z " fill="#194E50" transform="translate(325,185)"/>
<path d="M0 0 C8.25 0 16.5 0 25 0 C25 39.27 25 78.54 25 119 C16.75 119 8.5 119 0 119 C0 79.73 0 40.46 0 0 Z " fill="#144B4C" transform="translate(369,156)"/>
<path d="M0 0 C8.25 0 16.5 0 25 0 C25 29.37 25 58.74 25 89 C16.75 89 8.5 89 0 89 C0 59.63 0 30.26 0 0 Z " fill="#144D4F" transform="translate(635,187)"/>
<path d="M0 0 C3.52733566 1.57604359 5.42470132 3.39222045 7.9375 6.3125 C8.63875 7.09625 9.34 7.88 10.0625 8.6875 C14.77906871 15.29069619 16.10728242 21.26748695 14.9375 29.3125 C12.21521731 37.51424914 7.97465107 41.62106595 0.9375 46.3125 C-0.3825 46.3125 -1.7025 46.3125 -3.0625 46.3125 C-3.0625 46.9725 -3.0625 47.6325 -3.0625 48.3125 C-11.6446436 48.90940334 -18.17172652 48.83903954 -25.0625 43.3125 C-31.07348398 37.75068845 -34.16112139 31.75994919 -34.5625 23.5 C-34.39697451 16.56535321 -32.07457064 10.78210036 -27.51953125 5.53515625 C-26.0625 4.3125 -26.0625 4.3125 -24.0625 4.3125 C-24.0625 3.6525 -24.0625 2.9925 -24.0625 2.3125 C-16.74757627 -1.90722008 -8.1762736 -1.87297897 0 0 Z " fill="#F9FBFB" transform="translate(578.0625,207.6875)"/>
<path d="M0 0 C7.1303334 -0.36089111 12.08445345 1.22166555 17.4296875 5.9765625 C22.7523489 11.55533523 25.43262869 17.54046441 25.921875 25.24609375 C25.59558848 32.69135883 21.55542494 39.05135966 16.484375 44.24609375 C10.64575026 48.43792689 4.55474538 49.89572616 -2.56640625 49.75 C-8.87883298 48.67145292 -14.23627348 45.00955533 -18.28125 40.10546875 C-23.00158437 32.78081197 -23.18312181 25.82819555 -22.515625 17.24609375 C-20.89689316 11.12221669 -16.63118977 5.89573581 -11.515625 2.24609375 C-7.74885367 0.67077117 -4.02750927 0.39399547 0 0 Z " fill="#FAFCFC" transform="translate(456.515625,206.75390625)"/>
<path d="M0 0 C7.83862639 4.63918705 11.14893362 9.11501766 13.6484375 17.86328125 C15.20752691 25.2027682 13.65553429 31.34293092 10.0625 37.8125 C6.57853924 42.31718534 2.53735102 46.05641571 -2.9375 47.8125 C-11.74963019 48.68632855 -18.39461769 47.66812089 -25.5625 42.25 C-31.1191131 37.15748325 -34.16843811 30.84227721 -34.5625 23.3125 C-34.18587547 15.91601275 -31.01656518 9.74894582 -26 4.375 C-18.64168511 -1.78195736 -9.23995069 -3.60935574 0 0 Z " fill="#F9FBFB" transform="translate(731.9375,208.1875)"/>
<path d="M0 0 C3.07655559 1.18329061 3.84574804 1.77413106 5.75 4.5625 C7.3189284 8.87705309 7.73200645 12.46156002 7 17 C4.80850458 21.38299083 2.59809038 24.20074724 -2 26 C-6.12935355 26.62251561 -10.11144983 26.97324058 -13.91015625 25.015625 C-17.41356112 22.2266737 -19.51609549 19.27820529 -20.44140625 14.921875 C-20.69909361 10.30012759 -20.03950727 7.23776013 -17.3125 3.4375 C-12.47563589 -1.54803821 -6.49764106 -1.03622511 0 0 Z " fill="#184E4F" transform="translate(654,155)"/>
<path d="M0 0 C0 0.66 0 1.32 0 2 C1.051875 2.0309375 1.051875 2.0309375 2.125 2.0625 C6.32073982 3.43067603 8.76766142 6.23469474 11 10 C11.495 12.97 11.495 12.97 12 16 C-0.54 16 -13.08 16 -26 16 C-24.99374082 8.95618574 -24.31351646 6.2925788 -19 2 C-12.75652347 -0.43389763 -6.63874707 -0.21966443 0 0 Z " fill="#F8FBFB" transform="translate(320,205)"/>
<path d="M0 0 C0.66 0.33 1.32 0.66 2 1 C1.67 43.24 1.34 85.48 1 129 C-1.64 128.67 -4.28 128.34 -7 128 C-7.33 127.34 -7.66 126.68 -8 126 C-5.69 126.33 -3.38 126.66 -1 127 C-1.00092179 126.35155152 -1.00184359 125.70310305 -1.00279331 125.03500462 C-1.02484849 109.2789159 -1.04141152 93.52283253 -1.05181217 77.76673222 C-1.05697514 70.14729827 -1.06401784 62.52787461 -1.07543945 54.90844727 C-1.08538628 48.26971173 -1.09185342 41.63098363 -1.09408849 34.99224085 C-1.09539561 31.47495664 -1.09848147 27.95769374 -1.10573006 24.44041634 C-1.11374389 20.52025062 -1.11399114 16.60010601 -1.11352539 12.67993164 C-1.11712067 11.50533386 -1.12071594 10.33073608 -1.12442017 9.12054443 C-1.1230455 8.05898636 -1.12167084 6.99742828 -1.12025452 5.90370178 C-1.12117631 4.97545625 -1.1220981 4.04721071 -1.12304783 3.09083652 C-1 1 -1 1 0 0 Z " fill="#FEDDD6" transform="translate(84,127)"/>
<path d="M0 0 C0.33 0 0.66 0 1 0 C2.19474878 59.14630723 2.19474878 59.14630723 2 86 C9.26 86 16.52 86 24 86 C24 57.62 24 29.24 24 0 C24.33 0 24.66 0 25 0 C25 29.04 25 58.08 25 88 C16.75 88 8.5 88 0 88 C0 58.96 0 29.92 0 0 Z " fill="#123132" transform="translate(635,188)"/>
<path d="M0 0 C2.375 0.1875 2.375 0.1875 5 1 C7.38501867 5.22987611 7.28392997 9.51756988 7.26069641 14.24305725 C7.26452196 15.06938469 7.26834751 15.89571213 7.27228898 16.74707979 C7.28260153 19.51382442 7.27863018 22.28036086 7.2746582 25.04711914 C7.27900556 27.03149101 7.28418879 29.01586119 7.29014587 31.00022888 C7.30354245 36.38847819 7.30411396 41.77665738 7.30158257 47.16492009 C7.30051362 51.66075851 7.30539413 56.1565827 7.310188 60.65241808 C7.3212848 71.25535007 7.32171917 81.85824664 7.31567383 92.46118164 C7.30962862 103.40790196 7.32195856 114.35449392 7.3432439 125.30119234 C7.36083944 134.69491683 7.36686462 144.08860038 7.36360615 153.48234075 C7.36179037 159.09503923 7.3644591 164.70764608 7.37832069 170.32032967 C7.39086164 175.59560265 7.38899042 180.87067483 7.37590981 186.1459446 C7.37353656 188.08417579 7.37630532 190.02242096 7.38453293 191.96063614 C7.39493871 194.60196842 7.38694979 197.24261915 7.3742218 199.88392639 C7.38159609 200.65483598 7.38897037 201.42574557 7.39656812 202.22001606 C7.35383999 206.42092249 7.00989308 208.95721918 4 212 C4.07048009 211.44724917 4.14096017 210.89449834 4.21357602 210.32499748 C4.84569413 205.0743 5.14852581 199.93014204 5.14717102 194.64451599 C5.15268605 193.45925964 5.15268605 193.45925964 5.1583125 192.25005871 C5.16923534 189.6295082 5.17317342 187.00899748 5.17700195 184.38842773 C5.18327481 182.49862546 5.18992233 180.6088244 5.19691467 178.71902466 C5.21784471 172.54055625 5.22830081 166.36208788 5.23828125 160.18359375 C5.24233175 158.05122426 5.24644876 155.9188549 5.25063133 153.78648567 C5.26965192 143.77413498 5.28389429 133.76179156 5.2922433 123.74942631 C5.30203007 112.20565682 5.32840026 100.66207835 5.36874419 89.1183762 C5.39890102 80.18226092 5.41371142 71.24620047 5.41702431 62.31003529 C5.41937353 56.97779241 5.42831895 51.64575436 5.45348549 46.31356621 C5.47676622 41.3008441 5.48099939 36.28846178 5.47072411 31.27569962 C5.47022879 29.43911292 5.47654811 27.60250947 5.49028015 25.76597404 C5.50801513 23.25307746 5.50088592 20.74139869 5.48774719 18.22850037 C5.49871644 17.50698915 5.50968568 16.78547794 5.52098733 16.04210275 C5.45199856 10.55353595 3.71904817 6.71248719 1 2 C0.67 1.34 0.34 0.68 0 0 Z " fill="#FEE7DF" transform="translate(250,94)"/>
<path d="M0 0 C0.66 0 1.32 0 2 0 C2 31.02 2 62.04 2 94 C-3.20359947 95.30089987 -8.03374414 94.92239593 -13.37109375 94.7421875 C-17.23211277 95.01649025 -18.86983901 95.84732788 -22 98 C-23.5778125 98.309375 -23.5778125 98.309375 -25.1875 98.625 C-30.88956894 100.03790204 -34.93156269 105.02160858 -39 109 C-39.66 108.67 -40.32 108.34 -41 108 C-32.60707264 99.14788512 -26.09315833 94.91531496 -14 92 C-9.05 92 -4.1 92 1 92 C0.67 61.64 0.34 31.28 0 0 Z " fill="#EC8D81" transform="translate(217,171)"/>
<path d="M0 0 C3.61889911 1.67688915 5.64163494 3.58190743 8.25 6.625 C8.95640625 7.44226563 9.6628125 8.25953125 10.390625 9.1015625 C10.92171875 9.72804687 11.4528125 10.35453125 12 11 C11.67 11.66 11.34 12.32 11 13 C9.99403703 12.0479279 8.99538437 11.08812654 8 10.125 C7.443125 9.59132812 6.88625 9.05765625 6.3125 8.5078125 C5 7 5 7 5 5 C3.68 4.67 2.36 4.34 1 4 C1.00276538 4.60629683 1.00553076 5.21259365 1.00837994 5.83726311 C1.07457261 20.57555522 1.12424779 35.31383855 1.15543652 50.05224419 C1.17091925 57.1795777 1.19203543 64.30681212 1.22631836 71.43408203 C1.25936206 78.30698719 1.27683283 85.17978914 1.28463173 92.05276871 C1.29019247 94.680336 1.30105053 97.30789738 1.31719017 99.93542099 C1.33883691 103.60404595 1.34197224 107.27223986 1.34057617 110.94091797 C1.35675491 112.58521286 1.35675491 112.58521286 1.3732605 114.26272583 C1.36913651 115.25834534 1.36501251 116.25396484 1.36076355 117.27975464 C1.36352893 118.14808363 1.36629431 119.01641262 1.36914349 119.91105461 C1.18641746 120.94508258 1.18641746 120.94508258 1 122 C-0.485 122.99 -0.485 122.99 -2 124 C-1.83923477 123.08290756 -1.67846954 122.16581512 -1.51283264 121.22093201 C-0.7706283 115.98502194 -0.82310482 110.74439355 -0.79467773 105.46508789 C-0.78477814 104.32289795 -0.77487854 103.18070801 -0.76467896 102.00390625 C-0.73319173 98.24351038 -0.70835712 94.4831019 -0.68359375 90.72265625 C-0.66301319 88.10948872 -0.64201643 85.49632444 -0.62062073 82.88316345 C-0.57083816 76.71750136 -0.5258462 70.55181411 -0.48259836 64.38610309 C-0.43310208 57.36307009 -0.37823017 50.34008225 -0.32291877 43.31709301 C-0.20932054 28.87810482 -0.10243383 14.43907166 0 0 Z " fill="#FED4D0" transform="translate(122,176)"/>
<path d="M0 0 C0.33 0 0.66 0 1 0 C1 30.03 1 60.06 1 91 C-5.6 91.33 -12.2 91.66 -19 92 C-19 91.34 -19 90.68 -19 90 C-12.73 90 -6.46 90 0 90 C0 61.62 0 33.24 0 4 C-0.99 4.33 -1.98 4.66 -3 5 C-1.125 1.125 -1.125 1.125 0 0 Z " fill="#FEE1DA" transform="translate(217,172)"/>
<path d="M0 0 C8.25 0 16.5 0 25 0 C24.34 1.32 23.68 2.64 23 4 C23 3.34 23 2.68 23 2 C16.4 2 9.8 2 3 2 C2.67 19.16 2.34 36.32 2 54 C1.67 54 1.34 54 1 54 C0.67 36.18 0.34 18.36 0 0 Z " fill="#2D5455" transform="translate(635,187)"/>
<path d="M0 0 C-0.33 0.99 -0.66 1.98 -1 3 C-2.24136719 2.96519531 -3.48273438 2.93039062 -4.76171875 2.89453125 C-6.40363226 2.86638416 -8.04556046 2.83908499 -9.6875 2.8125 C-10.50412109 2.78736328 -11.32074219 2.76222656 -12.16210938 2.73632812 C-17.06233835 2.67681117 -19.90710225 3.0473745 -24 6 C-25.051875 6.20625 -26.10375 6.4125 -27.1875 6.625 C-32.88956894 8.03790204 -36.93156269 13.02160858 -41 17 C-41.66 16.67 -42.32 16.34 -43 16 C-30.40244758 2.71321979 -18.10071088 -0.83648985 0 0 Z " fill="#E8776B" transform="translate(219,263)"/>
<path d="M0 0 C4.18605491 0.46511721 8.21360569 1.03470679 12.3125 2 C20.3929707 3.70517019 28.77287918 3.67902403 37 4 C33.82311393 6.11792405 33.00195463 6.25559824 29.359375 6.265625 C28.45316406 6.26820313 27.54695313 6.27078125 26.61328125 6.2734375 C25.19595703 6.26183594 25.19595703 6.26183594 23.75 6.25 C22.82058594 6.25773437 21.89117187 6.26546875 20.93359375 6.2734375 C15.56415777 6.25824815 11.07635428 5.76690784 6 4 C6 3.34 6 2.68 6 2 C3.03 1.505 3.03 1.505 0 1 C0 0.67 0 0.34 0 0 Z " fill="#EB8275" transform="translate(46,328)"/>
<path d="M0 0 C0.66 0.33 1.32 0.66 2 1 C2 1.66 2 2.32 2 3 C3.32 3.66 4.64 4.32 6 5 C2.44219804 4.39009109 -0.6828589 3.4216319 -4 2 C-4 1.34 -4 0.68 -4 0 C-13.3389611 -1.26629981 -22.69815066 -1.75717094 -32 0 C-24.17337138 -8.57202182 -9.31998097 -3.51085516 0 0 Z " fill="#E97C71" transform="translate(122,121)"/>
<path d="M0 0 C0.66 0.33 1.32 0.66 2 1 C1.113125 1.94875 0.22625 2.8975 -0.6875 3.875 C-8.10251086 12.53756008 -10.19331972 21.24526079 -10.0625 32.375 C-10.05798828 33.11105469 -10.05347656 33.84710938 -10.04882812 34.60546875 C-10.03715142 36.40368158 -10.01922011 38.20185197 -10 40 C-10.66 40 -11.32 40 -12 40 C-12.05785647 36.04172765 -12.09354717 32.0835633 -12.125 28.125 C-12.14175781 26.99707031 -12.15851562 25.86914062 -12.17578125 24.70703125 C-12.18222656 23.63066406 -12.18867188 22.55429687 -12.1953125 21.4453125 C-12.20578613 20.45031738 -12.21625977 19.45532227 -12.22705078 18.43017578 C-12 16 -12 16 -10 14 C-9.525625 12.865625 -9.05125 11.73125 -8.5625 10.5625 C-7.18690725 7.42614853 -6.50752059 6.1063173 -4 4 C-3.278125 3.278125 -2.55625 2.55625 -1.8125 1.8125 C-1.214375 1.214375 -0.61625 0.61625 0 0 Z " fill="#FDDFD8" transform="translate(33,264)"/>
<path d="M0 0 C5.59073676 0.88943539 5.59073676 0.88943539 7.95019531 1.52685547 C10.05289248 2.01220886 11.89213977 2.12925011 14.046875 2.1328125 C14.81 2.13410156 15.573125 2.13539063 16.359375 2.13671875 C17.14828125 2.13285156 17.9371875 2.12898438 18.75 2.125 C19.5234375 2.12886719 20.296875 2.13273437 21.09375 2.13671875 C26.14733753 2.12823958 30.99767677 1.71951225 36 1 C35.67 1.99 35.34 2.98 35 4 C29.71214411 5.06449472 24.56031037 5.25231168 19.1875 5.3125 C17.91036133 5.35600586 17.91036133 5.35600586 16.60742188 5.40039062 C10.23502027 5.46348371 5.60077374 4.00456848 0 1 C0 0.67 0 0.34 0 0 Z " fill="#FDDCD7" transform="translate(190,332)"/>
<path d="M0 0 C0.33 0.99 0.66 1.98 1 3 C0.5875 3.350625 0.175 3.70125 -0.25 4.0625 C-2.23809132 6.10753321 -2.23809132 6.10753321 -3.875 9.5 C-5.70402964 12.86145988 -7.61470794 14.1701124 -11 16 C-11.33 16.99 -11.66 17.98 -12 19 C-12.99 19 -13.98 19 -15 19 C-15.33 20.32 -15.66 21.64 -16 23 C-18.31 23.66 -20.62 24.32 -23 25 C-20.55065935 22.54195831 -18.09548453 20.09268075 -15.60546875 17.67578125 C-9.91727815 12.11624116 -4.81895285 6.32655821 0 0 Z " fill="#FDDCD2" transform="translate(213,177)"/>
<path d="M0 0 C1.98 0.495 1.98 0.495 4 1 C3.67 2.65 3.34 4.3 3 6 C3.99 6.33 4.98 6.66 6 7 C6 8.32 6 9.64 6 11 C6.99 11 7.98 11 9 11 C9.12375 12.175625 9.12375 12.175625 9.25 13.375 C9.72806339 16.14749104 9.72806339 16.14749104 12.0625 17.3125 C12.701875 17.539375 13.34125 17.76625 14 18 C13.34 18.66 12.68 19.32 12 20 C6.15426378 14.80701348 1.55646525 9.51572844 -1 2 C-0.67 1.34 -0.34 0.68 0 0 Z " fill="#204849" transform="translate(523,249)"/>
<path d="M0 0 C0.33 0 0.66 0 1 0 C1 17.16 1 34.32 1 52 C0.67 52 0.34 52 0 52 C0 36.16 0 20.32 0 4 C-0.99 4.33 -1.98 4.66 -3 5 C-1.125 1.125 -1.125 1.125 0 0 Z " fill="#FFECEA" transform="translate(217,172)"/>
<path d="M0 0 C0.99 0.33 1.98 0.66 3 1 C2.04882866 2.1725131 1.08882991 3.33787015 0.125 4.5 C-0.67550781 5.47453125 -0.67550781 5.47453125 -1.4921875 6.46875 C-1.98976562 6.9740625 -2.48734375 7.479375 -3 8 C-3.66 8 -4.32 8 -5 8 C-5.226875 8.54140625 -5.45375 9.0828125 -5.6875 9.640625 C-7.41295108 12.74232872 -9.61293213 15.12700101 -12 17.75 C-12.45117188 18.25660156 -12.90234375 18.76320312 -13.3671875 19.28515625 C-14.53360812 20.56545817 -15.76283971 21.78791729 -17 23 C-17.66 23 -18.32 23 -19 23 C-18.505 21.515 -18.505 21.515 -18 20 C-17.34 20 -16.68 20 -16 20 C-15.34 18.35 -14.68 16.7 -14 15 C-13.34 15 -12.68 15 -12 15 C-12 14.01 -12 13.02 -12 12 C-11.01 12 -10.02 12 -9 12 C-9 11.34 -9 10.68 -9 10 C-8.34 10 -7.68 10 -7 10 C-6.938125 9.4225 -6.87625 8.845 -6.8125 8.25 C-5.6812921 5.11742429 -3.62052199 3.96539149 -1 2 C-0.67 1.34 -0.34 0.68 0 0 Z " fill="#FEE0D7" transform="translate(195,132)"/>
<path d="M0 0 C2.46155718 3.69233577 2.10275662 5.57331331 1.875 9.84375 C1.83509779 12.30039791 1.83509779 12.30039791 4 15 C4.7830176 17.26296187 5.45067481 19.54517078 6.12109375 21.84375 C7.07156309 24.17556812 8.2059218 25.28088328 10 27 C10 27.66 10 28.32 10 29 C10.99 29.33 11.98 29.66 13 30 C12.34 30.66 11.68 31.32 11 32 C3.67350004 24.18506671 -0.17063078 17.06307769 -0.0625 6.25 C-0.05347656 5.07953125 -0.04445312 3.9090625 -0.03515625 2.703125 C-0.02355469 1.81109375 -0.01195312 0.9190625 0 0 Z " fill="#DB6D61" transform="translate(169,293)"/>
<path d="M0 0 C0.33 0 0.66 0 1 0 C1 14.19 1 28.38 1 43 C0.34 42.67 -0.32 42.34 -1 42 C-1 41.34 -1 40.68 -1 40 C-1.99 39.67 -2.98 39.34 -4 39 C-2.02 38.505 -2.02 38.505 0 38 C-0.03552979 36.99098633 -0.07105957 35.98197266 -0.10766602 34.94238281 C-0.23820003 31.19288718 -0.36130141 27.44317776 -0.48217773 23.69335938 C-0.53549272 22.0715468 -0.59081357 20.44979885 -0.64819336 18.828125 C-0.73039833 16.4949334 -0.80534775 14.16160324 -0.87890625 11.828125 C-0.91945885 10.74352997 -0.91945885 10.74352997 -0.96083069 9.63702393 C-1.06061331 6.25866599 -1.08401439 3.22649401 0 0 Z " fill="#EBF6F7" transform="translate(591,155)"/>
<path d="M0 0 C0.66 0.33 1.32 0.66 2 1 C1.401875 1.825 0.80375 2.65 0.1875 3.5 C-6.09337123 13.13364946 -6.06416716 22.91342475 -4 34 C-6 33 -6 33 -6.60546875 31.44921875 C-8.10284276 22.15363952 -8.61332362 10.99757813 -3 3 C-2.0270602 1.97365301 -1.03347429 0.96536567 0 0 Z " fill="#FEE0D8" transform="translate(175,278)"/>
<path d="M0 0 C-3.08809695 1.76462683 -4.23312136 2 -8 2 C-8 2.66 -8 3.32 -8 4 C-13.94 4 -19.88 4 -26 4 C-26.33 3.34 -26.66 2.68 -27 2 C-25.9378125 1.95101563 -24.875625 1.90203125 -23.78125 1.8515625 C-14.89470156 1.51224444 -14.89470156 1.51224444 -6.1875 -0.125 C-3 -1 -3 -1 0 0 Z " fill="#2F5454" transform="translate(332,274)"/>
<path d="M0 0 C1 2 1 2 0.3125 4.5 C-1 7 -1 7 -3.0625 7.875 C-4.0215625 8.431875 -4.0215625 8.431875 -5 9 C-5.165 10.155 -5.33 11.31 -5.5 12.5 C-5.665 13.655 -5.83 14.81 -6 16 C-8.0625 17.4375 -8.0625 17.4375 -10 18 C-9.83400064 10.1980301 -5.35156368 5.35156368 0 0 Z " fill="#274D4F" transform="translate(532,196)"/>
<path d="M0 0 C0.66 0.33 1.32 0.66 2 1 C1.8125 2.8125 1.8125 2.8125 1 5 C-0.66279327 6.0064275 -2.32983484 7.00585407 -4 8 C-5.93676033 10.62846044 -6.91204231 12.45968846 -7.4375 15.6875 C-8 18 -8 18 -10.0625 19.3125 C-11.0215625 19.6528125 -11.0215625 19.6528125 -12 20 C-10.45728455 12.1150099 -5.81647791 5.47851742 0 0 Z " fill="#E16B62" transform="translate(35,264)"/>
<path d="M0 0 C0.66 0.33 1.32 0.66 2 1 C1.59007812 1.47050781 1.18015625 1.94101563 0.7578125 2.42578125 C-0.05042969 3.35970703 -0.05042969 3.35970703 -0.875 4.3125 C-1.40867187 4.92738281 -1.94234375 5.54226562 -2.4921875 6.17578125 C-4.1640447 8.13498212 -4.1640447 8.13498212 -6 11 C-5.67 11.66 -5.34 12.32 -5 13 C-5.639375 13.45375 -6.27875 13.9075 -6.9375 14.375 C-9.98225157 18.25013836 -9.81649865 22.1922647 -10 27 C-10.33 27 -10.66 27 -11 27 C-11.70345957 18.7773392 -10.65718724 12.89552529 -6 6 C-4.10846269 3.78065528 -2.19331614 1.93827938 0 0 Z " fill="#CCDEDE" transform="translate(709,210)"/>
<path d="M0 0 C1.3096875 -0.00515625 2.619375 -0.0103125 3.96875 -0.015625 C7.15242072 0.22385466 8.86102529 0.55351625 11.5 2.25 C3.99998764 3.87162429 -3.99998764 3.87162429 -11.5 2.25 C-7.75380451 -0.15826853 -4.37270385 -0.01721537 0 0 Z " fill="#506E71" transform="translate(716.5,183.75)"/>
<path d="M0 0 C0.73605469 0.00451172 1.47210938 0.00902344 2.23046875 0.01367188 C4.02868158 0.02534858 5.82685197 0.04327989 7.625 0.0625 C7.625 0.3925 7.625 0.7225 7.625 1.0625 C-2.77 1.5575 -2.77 1.5575 -13.375 2.0625 C-13.375 2.7225 -13.375 3.3825 -13.375 4.0625 C-20.33928571 6.33928571 -20.33928571 6.33928571 -24.375 5.0625 C-22.83663292 4.40884601 -21.29411234 3.76496397 -19.75 3.125 C-18.89148437 2.76535156 -18.03296875 2.40570313 -17.1484375 2.03515625 C-11.44840612 0.03613116 -5.96138307 -0.07007051 0 0 Z " fill="#E98071" transform="translate(68.375,252.9375)"/>
<path d="M0 0 C0.66 0 1.32 0 2 0 C0.20343577 5.55301672 -2.96442067 9.53248932 -7.6875 12.9375 C-8.450625 13.288125 -9.21375 13.63875 -10 14 C-10.66 13.67 -11.32 13.34 -12 13 C-10.1875 11 -10.1875 11 -8 9 C-7.01 9 -6.02 9 -5 9 C-4.5978125 7.88625 -4.5978125 7.88625 -4.1875 6.75 C-3.04723249 4.10938051 -1.90619694 2.14447156 0 0 Z " fill="#DDEBEB" transform="translate(478,240)"/>
<path d="M0 0 C0.66 0.33 1.32 0.66 2 1 C-2.03523352 5.81123996 -6.04467233 10.13242719 -11 14 C-11.66 13.67 -12.32 13.34 -13 13 C-11.71520959 11.49410612 -10.42195918 9.99542625 -9.125 8.5 C-8.04605469 7.24703125 -8.04605469 7.24703125 -6.9453125 5.96875 C-6.30335938 5.3190625 -5.66140625 4.669375 -5 4 C-4.34 4 -3.68 4 -3 4 C-3 3.34 -3 2.68 -3 2 C-2.01 1.34 -1.02 0.68 0 0 Z " fill="#E47466" transform="translate(233,93)"/>
<path d="M0 0 C0.33 0 0.66 0 1 0 C1 5.61 1 11.22 1 17 C0.34 17 -0.32 17 -1 17 C-1.22354607 15.10590022 -1.42819951 13.2095652 -1.625 11.3125 C-1.74101562 10.25675781 -1.85703125 9.20101562 -1.9765625 8.11328125 C-2.0010326 4.86283654 -1.40852563 2.89769204 0 0 Z " fill="#173D3E" transform="translate(355,220)"/>
<path d="M0 0 C0 0.99 0 1.98 0 3 C1.32 3.33 2.64 3.66 4 4 C4 4.66 4 5.32 4 6 C-1.75 4.125 -1.75 4.125 -4 3 C-6.37402501 2.92883618 -8.75000677 2.91590915 -11.125 2.9375 C-12.40632813 2.94652344 -13.68765625 2.95554688 -15.0078125 2.96484375 C-15.99523437 2.97644531 -16.98265625 2.98804688 -18 3 C-14.76666488 0.84444326 -13.34520489 0.65215884 -9.5625 0.375 C-8.61503906 0.30023438 -7.66757812 0.22546875 -6.69140625 0.1484375 C-4.46377418 0.02557826 -2.23101749 0 0 0 Z " fill="#506F71" transform="translate(468,205)"/>
<path d="M0 0 C1.37351794 3.12163168 0.89111525 4.33811581 -0.1875 7.6875 C-2 11 -2 11 -4.1875 11.9375 C-4.785625 11.958125 -5.38375 11.97875 -6 12 C-4.68139111 7.38486888 -2.78644563 3.90102388 0 0 Z " fill="#2B5050" transform="translate(277,201)"/>
<path d="M0 0 C4.29 0 8.58 0 13 0 C12.01 1.485 12.01 1.485 11 3 C8.6171875 3.29296875 8.6171875 3.29296875 5.875 3.1875 C4.96492187 3.16042969 4.05484375 3.13335937 3.1171875 3.10546875 C2.41851563 3.07066406 1.71984375 3.03585938 1 3 C0.67 2.01 0.34 1.02 0 0 Z " fill="#325152" transform="translate(641,178)"/>
<path d="M0 0 C0.66 0 1.32 0 2 0 C1.67 0.99 1.34 1.98 1 3 C0.34 3 -0.32 3 -1 3 C-1 3.99 -1 4.98 -1 6 C-1.99 6.66 -2.98 7.32 -4 8 C-5.20482939 9.7179646 -5.20482939 9.7179646 -6.1875 11.625 C-7.0846875 13.295625 -7.0846875 13.295625 -8 15 C-8.33 14.34 -8.66 13.68 -9 13 C-8.328125 11.16015625 -8.328125 11.16015625 -7.25 9.0625 C-6.90453125 8.37285156 -6.5590625 7.68320313 -6.203125 6.97265625 C-4.98027029 4.96765097 -3.79705256 3.50857833 -2 2 C-1.34 2 -0.68 2 0 2 C0 1.34 0 0.68 0 0 Z " fill="#D7E7E8" transform="translate(554,210)"/>
<path d="M0 0 C2.31 0.33 4.62 0.66 7 1 C7 1.66 7 2.32 7 3 C10.3 3 13.6 3 17 3 C16.67 3.66 16.34 4.32 16 5 C6.26995516 5.76681614 6.26995516 5.76681614 3.15625 3.88671875 C1.8125 2.5 1.8125 2.5 0 0 Z " fill="#FDCBC2" transform="translate(157,154)"/>
<path d="M0 0 C1.88908795 2.83363193 3.73118579 5.69127459 5.5625 8.5625 C6.18253906 9.53316406 6.80257813 10.50382812 7.44140625 11.50390625 C9 14 9 14 10 16 C8.68 15.67 7.36 15.34 6 15 C6 14.01 6 13.02 6 12 C5.34 12 4.68 12 4 12 C4 11.01 4 10.02 4 9 C3.34 9 2.68 9 2 9 C-0.29013653 5.5647952 -0.17842973 4.014669 0 0 Z " fill="#FDDBD2" transform="translate(23,304)"/>
<path d="M0 0 C1.32 0.99 2.64 1.98 4 3 C2.90081184 3.98475214 1.7954398 4.96260473 0.6875 5.9375 C0.07261719 6.48277344 -0.54226562 7.02804687 -1.17578125 7.58984375 C-3 9 -3 9 -6 10 C-6 9.34 -6 8.68 -6 8 C-5.34 8 -4.68 8 -4 8 C-3.87625 7.360625 -3.7525 6.72125 -3.625 6.0625 C-3.41875 5.381875 -3.2125 4.70125 -3 4 C-2.34 3.67 -1.68 3.34 -1 3 C-0.67 2.01 -0.34 1.02 0 0 Z " fill="#EB6C5E" transform="translate(240,319)"/>
<path d="M0 0 C0.66 0.33 1.32 0.66 2 1 C1.195625 1.66 0.39125 2.32 -0.4375 3 C-3.75148924 6.87979228 -3.74577025 9.00014825 -4 14 C-4.99 14 -5.98 14 -7 14 C-6.73672346 7.54972485 -4.49335977 4.52084209 0 0 Z " fill="#D3E5E6" transform="translate(301,207)"/>
<path d="M0 0 C0.66 0.33 1.32 0.66 2 1 C0.02937196 4.54713047 -2.04330505 7.22809848 -5 10 C-5.5775 10.5775 -6.155 11.155 -6.75 11.75 C-7.36875 12.36875 -7.36875 12.36875 -8 13 C-6.76398107 6.81990533 -4.69904339 4.1882778 0 0 Z " fill="#1F4848" transform="translate(689,195)"/>
<path d="M0 0 C0.66 0.33 1.32 0.66 2 1 C2.08131463 2.43655854 2.13933559 3.8744483 2.1875 5.3125 C2.23970703 6.51326172 2.23970703 6.51326172 2.29296875 7.73828125 C1.93801608 10.47851584 1.10633718 11.29171079 -1 13 C-1.02686553 11.02090602 -1.04633375 9.04171029 -1.0625 7.0625 C-1.07410156 5.96035156 -1.08570313 4.85820312 -1.09765625 3.72265625 C-1 1 -1 1 0 0 Z " fill="#1A3E3D" transform="translate(659,162)"/>
<path d="M0 0 C0.33 0.66 0.66 1.32 1 2 C0.3125 4.0625 0.3125 4.0625 -1 6 C-2.33333333 6.33333333 -3.66666667 6.66666667 -5 7 C-5.6837045 8.32467746 -6.34964186 9.65863633 -7 11 C-9.0625 12.12890625 -9.0625 12.12890625 -11 13 C-7.61227103 8.30840284 -4.21814817 3.9700218 0 0 Z " fill="#E57066" transform="translate(189,142)"/>
<path d="M0 0 C1 3 1 3 -0.0625 5.375 C-2.40122214 8.54359128 -4.89579024 10.58561463 -8 13 C-8.66 12.67 -9.32 12.34 -10 12 C-6.7 8.04 -3.4 4.08 0 0 Z " fill="#E57569" transform="translate(212,115)"/>
<path d="M0 0 C0.33 0 0.66 0 1 0 C2.51233701 6.46794133 3.21432579 12.35590042 3 19 C-0.01399879 14.47900181 -0.12108347 11.13967935 -0.0625 5.75 C-0.04896484 4.13351562 -0.04896484 4.13351562 -0.03515625 2.484375 C-0.02355469 1.66453125 -0.01195313 0.8446875 0 0 Z " fill="#DD6A5A" transform="translate(22,288)"/>
<path d="M0 0 C7.5 0.625 7.5 0.625 12 4 C5.565 4.495 5.565 4.495 -1 5 C-1.33 4.01 -1.66 3.02 -2 2 C-1.34 2 -0.68 2 0 2 C0 1.34 0 0.68 0 0 Z " fill="#375E60" transform="translate(714,203)"/>
<path d="M0 0 C0.99 0.33 1.98 0.66 3 1 C3 1.66 3 2.32 3 3 C3.66 3.33 4.32 3.66 5 4 C5.625 6.0625 5.625 6.0625 6 8 C3.0280615 6.87548273 0.66559313 5.77706209 -2 4 C-1.34 2.68 -0.68 1.36 0 0 Z " fill="#315859" transform="translate(538,266)"/>
<path d="M0 0 C4.05677724 4.76230372 4.12947457 9.21781456 4.0625 15.3125 C4.05347656 16.38113281 4.04445313 17.44976562 4.03515625 18.55078125 C4.02355469 19.35902344 4.01195312 20.16726562 4 21 C3.67 21 3.34 21 3 21 C2.67 16.05 2.34 11.1 2 6 C1.34 6 0.68 6 0 6 C0 4.02 0 2.04 0 0 Z " fill="#0F3030" transform="translate(502,215)"/>
<path d="M0 0 C0.66 0.33 1.32 0.66 2 1 C-0.57516622 3.63746863 -2.54331396 4.21887499 -6.109375 4.29296875 C-7.65652231 4.27313353 -9.20353396 4.2375101 -10.75 4.1875 C-11.54277344 4.17396484 -12.33554688 4.16042969 -13.15234375 4.14648438 C-15.10185564 4.11125223 -17.05101626 4.05744821 -19 4 C-19 3.67 -19 3.34 -19 3 C-18.04738281 2.95101562 -17.09476563 2.90203125 -16.11328125 2.8515625 C-14.85902344 2.77679688 -13.60476562 2.70203125 -12.3125 2.625 C-10.45044922 2.52058594 -10.45044922 2.52058594 -8.55078125 2.4140625 C-5.29278663 2.03414234 -2.99258465 1.24017021 0 0 Z " fill="#FBC9C6" transform="translate(183,205)"/>
<path d="M0 0 C0.66 0 1.32 0 2 0 C2 0.66 2 1.32 2 2 C3.423125 2.2784375 3.423125 2.2784375 4.875 2.5625 C8 4 8 4 9.375 7.625 C9.58125 8.73875 9.7875 9.8525 10 11 C6.14096493 7.93031302 2.91115635 5.03083186 0 1 C0 0.67 0 0.34 0 0 Z " fill="#FDE6DB" transform="translate(147,143)"/>
<path d="M0 0 C3.51463012 1.89980007 5.89550678 3.56635317 8 7 C8 7.66 8 8.32 8 9 C8.66 9.33 9.32 9.66 10 10 C6.4628562 9.43867066 5.00738321 8.30442253 2.75 5.5625 C1.96882813 4.63630859 1.96882813 4.63630859 1.171875 3.69140625 C0 2 0 2 0 0 Z " fill="#204746" transform="translate(417,256)"/>
<path d="M0 0 C0.33 0 0.66 0 1 0 C1 5.61 1 11.22 1 17 C0.01 17 -0.98 17 -2 17 C-1.34 11.39 -0.68 5.78 0 0 Z " fill="#153B3B" transform="translate(482,226)"/>
<path d="M0 0 C1.41623216 -0.05447047 2.83308191 -0.09300508 4.25 -0.125 C5.03890625 -0.14820313 5.8278125 -0.17140625 6.640625 -0.1953125 C9.20731941 0.0171622 10.7916067 0.71345895 13 2 C13 2.33 13 2.66 13 3 C8.07872966 3.16682272 4.49656104 3.24828052 0 1 C0 0.67 0 0.34 0 0 Z " fill="#EC786C" transform="translate(155,205)"/>
<path d="M0 0 C0.33 0 0.66 0 1 0 C1 6.6 1 13.2 1 20 C0.67 20 0.34 20 0 20 C0 14.72 0 9.44 0 4 C-0.99 4.33 -1.98 4.66 -3 5 C-1.125 1.125 -1.125 1.125 0 0 Z " fill="#FFE5DB" transform="translate(217,172)"/>
<path d="M0 0 C2.0625 0.4375 2.0625 0.4375 4 1 C-4.261959 5.59225513 -4.261959 5.59225513 -9 5 C-8.34 3.68 -7.68 2.36 -7 1 C-5.5459375 1.0309375 -5.5459375 1.0309375 -4.0625 1.0625 C-1.12534105 1.35618499 -1.12534105 1.35618499 0 0 Z " fill="#EA6A57" transform="translate(92,327)"/>
<path d="M0 0 C0.33 1.32 0.66 2.64 1 4 C0.01 4.495 0.01 4.495 -1 5 C-1 5.66 -1 6.32 -1 7 C-1.66 7 -2.32 7 -3 7 C-3 7.66 -3 8.32 -3 9 C-4.65 9.33 -6.3 9.66 -8 10 C-7.59007812 9.52949219 -7.18015625 9.05898438 -6.7578125 8.57421875 C-6.21898437 7.95160156 -5.68015625 7.32898438 -5.125 6.6875 C-4.59132812 6.07261719 -4.05765625 5.45773437 -3.5078125 4.82421875 C-1.8359553 2.86501788 -1.8359553 2.86501788 0 0 Z " fill="#FEE3DA" transform="translate(249,315)"/>
<path d="M0 0 C1.32 0.33 2.64 0.66 4 1 C4.33 2.98 4.66 4.96 5 7 C5.66 7 6.32 7 7 7 C6.67 8.32 6.34 9.64 6 11 C4.5 9 4.5 9 3 7 C2.443125 6.319375 1.88625 5.63875 1.3125 4.9375 C0 3 0 3 0 0 Z " fill="#234949" transform="translate(327,208)"/>
<path d="M0 0 C0.99 0 1.98 0 3 0 C3 0.99 3 1.98 3 3 C3.928125 3.2165625 3.928125 3.2165625 4.875 3.4375 C7 4 7 4 9 5 C8.67 5.99 8.34 6.98 8 8 C3.96615872 5.92856799 2.07143201 4.03384128 0 0 Z " fill="#2B5354" transform="translate(683,261)"/>
<path d="M0 0 C3 3 6 6 9 9 C6.6875 9.3125 6.6875 9.3125 4 9 C2.18116991 6.6167054 1 5.04181663 1 2 C0.34 1.67 -0.32 1.34 -1 1 C-0.67 0.67 -0.34 0.34 0 0 Z " fill="#294D50" transform="translate(701,244)"/>
<path d="M0 0 C0.66 0.99 1.32 1.98 2 3 C1.125 6.1875 1.125 6.1875 0 9 C-0.99 9 -1.98 9 -3 9 C-3.1875 5.625 -3.1875 5.625 -3 2 C-2.01 1.34 -1.02 0.68 0 0 Z " fill="#1E4446" transform="translate(637,161)"/>
<path d="M0 0 C2.8125 -0.3125 2.8125 -0.3125 6 0 C7.9375 2.375 7.9375 2.375 9 5 C8.67 5.66 8.34 6.32 8 7 C6.66382648 6.02471263 5.3311249 5.04466681 4 4.0625 C3.2575 3.51722656 2.515 2.97195312 1.75 2.41015625 C1.1725 1.94480469 0.595 1.47945313 0 1 C0 0.67 0 0.34 0 0 Z " fill="#FDDDD2" transform="translate(126,124)"/>
<path d="M0 0 C0 1.65 0 3.3 0 5 C-3.37503669 3.8141763 -5.64722731 2.72426311 -8 0 C-4.71023192 -1.09658936 -3.28696233 -0.79953138 0 0 Z " fill="#ED6C5C" transform="translate(46,323)"/>
<path d="M0 0 C0.33 0.99 0.66 1.98 1 3 C-1.64 5.31 -4.28 7.62 -7 10 C-7.33 9.01 -7.66 8.02 -8 7 C-4.25 4 -4.25 4 -2 4 C-1.34 2.68 -0.68 1.36 0 0 Z " fill="#325454" transform="translate(346,261)"/>
<path d="M0 0 C0.33 1.32 0.66 2.64 1 4 C-3.296875 8.00390625 -3.296875 8.00390625 -5 9 C-7.203125 8.65234375 -7.203125 8.65234375 -9 8 C-8.43410156 7.59007812 -7.86820312 7.18015625 -7.28515625 6.7578125 C-6.18494141 5.94957031 -6.18494141 5.94957031 -5.0625 5.125 C-4.33160156 4.59132812 -3.60070312 4.05765625 -2.84765625 3.5078125 C-0.88901765 2.11987896 -0.88901765 2.11987896 0 0 Z " fill="#35585B" transform="translate(477,245)"/>
<path d="M0 0 C0.33 0 0.66 0 1 0 C1.33278764 6.81598387 1.24201565 11.92122066 -2 18 C-2.66 17.01 -3.32 16.02 -4 15 C-3.67 14.34 -3.34 13.68 -3 13 C-2.34 13 -1.68 13 -1 13 C-0.67 8.71 -0.34 4.42 0 0 Z " fill="#B4C9CB" transform="translate(592,226)"/>
<path d="M0 0 C1.2065625 0.9590625 1.2065625 0.9590625 2.4375 1.9375 C6.35851307 4.59852326 10.36642801 4.79406347 15 5 C15 5.33 15 5.66 15 6 C4.44191344 6.3690205 4.44191344 6.3690205 0 4 C0 2.68 0 1.36 0 0 Z " fill="#E96D5F" transform="translate(156,154)"/>
<path d="M0 0 C6.93 0.495 6.93 0.495 14 1 C14 1.33 14 1.66 14 2 C13.25234375 2.03738281 12.5046875 2.07476562 11.734375 2.11328125 C10.74953125 2.17902344 9.7646875 2.24476563 8.75 2.3125 C7.77546875 2.37050781 6.8009375 2.42851562 5.796875 2.48828125 C2.74658389 3.04636524 1.29288724 3.96369776 -1 6 C-0.67 4.02 -0.34 2.04 0 0 Z " fill="#C6D4D5" transform="translate(638,153)"/>
<path d="M0 0 C4.875 0.875 4.875 0.875 6 2 C6.04063832 3.66617115 6.042721 5.33388095 6 7 C1.125 3.375 1.125 3.375 0 0 Z " fill="#DDEBEC" transform="translate(702,244)"/>
<path d="M0 0 C0.66 0.33 1.32 0.66 2 1 C0.63875 1.8353125 0.63875 1.8353125 -0.75 2.6875 C-3.85070628 4.89377177 -5.68915492 7.02891347 -8 10 C-8.66 10 -9.32 10 -10 10 C-8.4411666 6.17377257 -6.04566418 3.74852621 -3 1 C-2.01 0.67 -1.02 0.34 0 0 Z " fill="#C8D7D8" transform="translate(448,208)"/>
<path d="M0 0 C0.94875 0.04125 1.8975 0.0825 2.875 0.125 C1.48923347 2.89653305 -0.46631141 3.60574938 -3.125 5.125 C-4.115 5.785 -5.105 6.445 -6.125 7.125 C-5.03177966 0.20127119 -5.03177966 0.20127119 0 0 Z " fill="#375C5C" transform="translate(710.125,207.875)"/>
<path d="M0 0 C1.14926266 0.95421808 2.29430541 1.91352045 3.4375 2.875 C4.07558594 3.40867188 4.71367187 3.94234375 5.37109375 4.4921875 C7 6 7 6 8 8 C5.6875 7.8125 5.6875 7.8125 3 7 C0 2.96551724 0 2.96551724 0 0 Z " fill="#FEE7DD" transform="translate(136,191)"/>
<path d="M0 0 C0.33 0 0.66 0 1 0 C1 4.62 1 9.24 1 14 C0.34 13.67 -0.32 13.34 -1 13 C-1 12.34 -1 11.68 -1 11 C-1.99 10.67 -2.98 10.34 -4 10 C-2.68 9.67 -1.36 9.34 0 9 C0 6.03 0 3.06 0 0 Z " fill="#D4E5E7" transform="translate(591,184)"/>
<path d="M0 0 C0.99 0.33 1.98 0.66 3 1 C0.36 3.97 -2.28 6.94 -5 10 C-5.33 9.34 -5.66 8.68 -6 8 C-5.67 7.34 -5.34 6.68 -5 6 C-4.34 6 -3.68 6 -3 6 C-2.87625 5.38125 -2.7525 4.7625 -2.625 4.125 C-2 2 -2 2 0 0 Z " fill="#FEE6DE" transform="translate(212,112)"/>
<path d="M0 0 C2 0 2 0 3.625 1.375 C5 3 5 3 5 5 C5.66 5 6.32 5 7 5 C7.33 5.99 7.66 6.98 8 8 C7.01 8 6.02 8 5 8 C0 2.65116279 0 2.65116279 0 0 Z " fill="#E26C63" transform="translate(28,312)"/>
<path d="M0 0 C0.99 0 1.98 0 3 0 C2.71125 0.556875 2.4225 1.11375 2.125 1.6875 C0.9586747 4.08494645 -0.0339881 6.51596939 -1 9 C-1.66 8.01 -2.32 7.02 -3 6 C-2.01 4.02 -1.02 2.04 0 0 Z " fill="#E77465" transform="translate(174,282)"/>
<path d="M0 0 C0 0.66 0 1.32 0 2 C-6.93 1.505 -6.93 1.505 -14 1 C-14 0.67 -14 0.34 -14 0 C-12.41773035 -0.19627391 -10.83410729 -0.38165538 -9.25 -0.5625 C-8.36828125 -0.66691406 -7.4865625 -0.77132812 -6.578125 -0.87890625 C-4.11567549 -0.99456676 -2.33461936 -0.73638695 0 0 Z " fill="#4D6D6E" transform="translate(578,206)"/>
<path d="M0 0 C0.66 0.33 1.32 0.66 2 1 C1.67 2.32 1.34 3.64 1 5 C-0.98 5.33 -2.96 5.66 -5 6 C-3.35 4.02 -1.7 2.04 0 0 Z " fill="#EB786C" transform="translate(35,264)"/>
<path d="M0 0 C0.53625 0.226875 1.0725 0.45375 1.625 0.6875 C-5 4.6875 -5 4.6875 -8.375 4.6875 C-8.375 4.0275 -8.375 3.3675 -8.375 2.6875 C-2.95961538 -0.38942308 -2.95961538 -0.38942308 0 0 Z " fill="#E56D5F" transform="translate(200.375,264.3125)"/>
<path d="M0 0 C0.66 1.32 1.32 2.64 2 4 C1.01 4.66 0.02 5.32 -1 6 C-1.72965366 8.56282742 -1.72965366 8.56282742 -2 11 C-2.33 11 -2.66 11 -3 11 C-3.36923077 3.49230769 -3.36923077 3.49230769 -1.5 1 C-1.005 0.67 -0.51 0.34 0 0 Z " fill="#124343" transform="translate(676,224)"/>
<path d="M0 0 C2.875 0.25 2.875 0.25 6 1 C7.375 3.0625 7.375 3.0625 8 5 C5 5 5 5 2.3125 2.5 C1.549375 1.675 0.78625 0.85 0 0 Z " fill="#345A5B" transform="translate(581,210)"/>
<path d="M0 0 C0.33 0.99 0.66 1.98 1 3 C-1.31 4.98 -3.62 6.96 -6 9 C-6.66 8.67 -7.32 8.34 -8 8 C-5.36 5.36 -2.72 2.72 0 0 Z " fill="#FBCDC2" transform="translate(111,315)"/>
<path d="M0 0 C0.33 0 0.66 0 1 0 C1.25 2.75 1.25 2.75 1 6 C-1 8.375 -1 8.375 -3 10 C-3 6.13304322 -1.58090029 3.4911548 0 0 Z " fill="#FEDCD1" transform="translate(119,301)"/>
<path d="M0 0 C2.97 0.495 2.97 0.495 6 1 C6.33 1.99 6.66 2.98 7 4 C6.01 4.495 6.01 4.495 5 5 C4.01 4.67 3.02 4.34 2 4 C2 3.34 2 2.68 2 2 C1.34 2 0.68 2 0 2 C0 1.34 0 0.68 0 0 Z " fill="#DBE7E8" transform="translate(575,208)"/>
<path d="M0 0 C0.66 0 1.32 0 2 0 C1.875 1.875 1.875 1.875 1 4 C-2.0625 5.25 -2.0625 5.25 -5 6 C-3.38405168 3.95880212 -1.7143618 1.95927063 0 0 Z " fill="#FEE4DD" transform="translate(205,187)"/>
<path d="M0 0 C2 2 2 2 2 5 C-3.75 3.25 -3.75 3.25 -6 1 C-4.7934375 1.0309375 -4.7934375 1.0309375 -3.5625 1.0625 C-1.06645115 1.29633621 -1.06645115 1.29633621 0 0 Z " fill="#CEDFE0" transform="translate(484,187)"/>
<path d="M0 0 C1.32 0.33 2.64 0.66 4 1 C1.66666667 3.33333333 -0.66666667 5.66666667 -3 8 C-3 6.35 -3 4.7 -3 3 C-2.34 3 -1.68 3 -1 3 C-0.67 2.01 -0.34 1.02 0 0 Z " fill="#FFE6DF" transform="translate(89,118)"/>
<path d="M0 0 C0.33 0.99 0.66 1.98 1 3 C-0.9375 5.6875 -0.9375 5.6875 -3 8 C-3.99 7.67 -4.98 7.34 -6 7 C-4.02 4.69 -2.04 2.38 0 0 Z " fill="#E47468" transform="translate(219,107)"/>
<path d="M0 0 C0.66 0.33 1.32 0.66 2 1 C1.50168276 4.68754757 0.89932357 6.60490662 -2 9 C-2.33 8.01 -2.66 7.02 -3 6 C-2.34 6 -1.68 6 -1 6 C-0.67 4.02 -0.34 2.04 0 0 Z " fill="#224748" transform="translate(349,253)"/>
<path d="M0 0 C0.33 0.66 0.66 1.32 1 2 C0.67 2.66 0.34 3.32 0 4 C0.66 4.33 1.32 4.66 2 5 C1.360625 5.268125 0.72125 5.53625 0.0625 5.8125 C-2.33131686 6.88667752 -2.33131686 6.88667752 -3 10 C-2.49287967 6.28111761 -1.88391785 3.26545761 0 0 Z " fill="#DAEAEB" transform="translate(437,218)"/>
<path d="M0 0 C2.62187494 1.04874998 3.79371361 1.64931313 5.25 4.125 C5.4975 4.74375 5.745 5.3625 6 6 C4.35 5.67 2.7 5.34 1 5 C0.67 3.35 0.34 1.7 0 0 Z " fill="#234849" transform="translate(345,201)"/>
<path d="M0 0 C0.66 0.66 1.32 1.32 2 2 C-1.465 4.97 -1.465 4.97 -5 8 C-5 7.01 -5 6.02 -5 5 C-4.34 5 -3.68 5 -3 5 C-3 4.01 -3 3.02 -3 2 C-2.01 2 -1.02 2 0 2 C0 1.34 0 0.68 0 0 Z " fill="#CDDEDF" transform="translate(688,193)"/>
<path d="M0 0 C7.50769231 0.61538462 7.50769231 0.61538462 10 2.5625 C10.33 3.036875 10.66 3.51125 11 4 C7.0507432 3.44894091 3.65079826 2.61064629 0 1 C0 0.67 0 0.34 0 0 Z " fill="#ED7E75" transform="translate(189,330)"/>
<path d="M0 0 C0.99 0.33 1.98 0.66 3 1 C3.6875 3.0625 3.6875 3.0625 4 5 C3.01 5 2.02 5 1 5 C-0.6875 3 -0.6875 3 -2 1 C-1.34 0.67 -0.68 0.34 0 0 Z " fill="#2D5355" transform="translate(474,210)"/>
<path d="M0 0 C1.65 0 3.3 0 5 0 C4.01 1.98 3.02 3.96 2 6 C1.01 5.01 0.02 4.02 -1 3 C-0.67 2.01 -0.34 1.02 0 0 Z " fill="#204A4B" transform="translate(293,210)"/>
<path d="M0 0 C0.86625 0.3403125 0.86625 0.3403125 1.75 0.6875 C-0.23 2.0075 -2.21 3.3275 -4.25 4.6875 C-4.91 4.0275 -5.57 3.3675 -6.25 2.6875 C-2.80384615 -0.38942308 -2.80384615 -0.38942308 0 0 Z " fill="#4D6A6D" transform="translate(436.25,188.3125)"/>
<path d="M0 0 C1.98 0 3.96 0 6 0 C6 2.31 6 4.62 6 7 C1.125 2.25 1.125 2.25 0 0 Z " fill="#E5695C" transform="translate(124,176)"/>
<path d="M0 0 C1.875 0.1875 1.875 0.1875 4 1 C5.25 3.5625 5.25 3.5625 6 6 C5.01 6 4.02 6 3 6 C2.01 4.02 1.02 2.04 0 0 Z " fill="#48696A" transform="translate(654,156)"/>
<path d="M0 0 C0.33 0.66 0.66 1.32 1 2 C1.66 2 2.32 2 3 2 C2.34 3.32 1.68 4.64 1 6 C-0.32 4.35 -1.64 2.7 -3 1 C-2.01 0.67 -1.02 0.34 0 0 Z " fill="#FDE4DE" transform="translate(145,137)"/>
</svg>
